<svg width="48" height="48" viewBox="0 0 48 48" fill="none" xmlns="http://www.w3.org/2000/svg">
<rect width="48" height="48" fill="#323238"/>
<circle cx="15.3333" cy="16.1333" r="3.33333" fill="white"/>
<rect x="12.5333" y="20" width="5.6" height="15.0667" fill="white"/>
<path d="M26.254 35.0833H20.8V19.994H26.254V20.9813L26.8288 20.5849C27.701 19.9835 28.7233 19.6365 29.7814 19.5827C30.4248 19.55 31.0711 19.627 31.6891 19.8093C34.0598 20.5086 35.7301 22.6422 35.831 25.1119L35.8667 25.9833V35.0833H30.4127V26.8657C30.4127 26.5874 30.3565 26.311 30.2481 26.0546C29.529 24.3526 27.1077 24.356 26.4085 26.0662C26.3065 26.3157 26.254 26.5826 26.254 26.8521V35.0833Z" fill="white"/>
</svg>
