<svg width="48" height="48" viewBox="0 0 48 48" fill="none" xmlns="http://www.w3.org/2000/svg">
<rect width="48" height="48" fill="#323238"/>
<path fill-rule="evenodd" clip-rule="evenodd" d="M32.5002 15.4897C30.2434 13.2431 27.2477 12.0057 24.0515 12C17.4644 12 12.1088 17.3371 12.1031 23.8888C12.1031 25.9872 12.653 28.0285 13.6955 29.8361L12 36L18.3351 34.3464C20.0821 35.2929 22.0468 35.7947 24.0458 35.7947H24.0515C30.6329 35.7947 35.9943 30.4576 36 23.9002C36 20.7242 34.757 17.7363 32.5002 15.4897ZM24.0515 33.7876C22.2644 33.7876 20.5174 33.3086 18.9938 32.4077L18.6329 32.191L14.8754 33.1718L15.8778 29.5225L15.643 29.1461C14.6463 27.5723 14.1251 25.7534 14.1251 23.8888C14.1251 18.4376 18.5814 14.0071 24.0573 14.0071C26.7093 14.0071 29.201 15.0392 31.0797 16.9038C32.9527 18.7741 33.9838 21.2545 33.9838 23.8945C33.978 29.3514 29.5217 33.7876 24.0515 33.7876ZM29.4988 26.3806C29.201 26.2324 27.7346 25.5139 27.4597 25.4113C27.1847 25.3143 26.9842 25.263 26.7895 25.5595C26.589 25.856 26.0162 26.5289 25.8444 26.7227C25.6726 26.9223 25.495 26.9451 25.1971 26.7969C24.8993 26.6486 23.937 26.335 22.7971 25.32C21.9093 24.5331 21.3136 23.5581 21.136 23.2616C20.9642 22.9651 21.1189 22.8054 21.2678 22.6572C21.3995 22.526 21.5656 22.3093 21.7146 22.1383C21.8635 21.9672 21.915 21.8418 22.0124 21.6422C22.1098 21.4426 22.064 21.2716 21.9895 21.1233C21.915 20.9751 21.3193 19.5096 21.0673 18.9166C20.8267 18.335 20.5804 18.4148 20.3971 18.4091C20.2253 18.3977 20.0248 18.3977 19.8243 18.3977C19.6239 18.3977 19.3031 18.4718 19.0282 18.7684C18.7532 19.0649 17.9857 19.7833 17.9857 21.2488C17.9857 22.7142 19.0568 24.1226 19.2057 24.3222C19.3547 24.5217 21.3079 27.521 24.3036 28.8097C25.0138 29.1176 25.5695 29.3001 26.0048 29.4369C26.7208 29.665 27.368 29.6308 27.8835 29.5567C28.4563 29.4711 29.6477 28.8382 29.8998 28.1426C30.1461 27.4469 30.1461 26.8539 30.0716 26.7284C29.9971 26.603 29.7967 26.5289 29.4988 26.3806Z" fill="white"/>
<path d="M27.4597 25.4113C27.7346 25.5139 29.201 26.2324 29.4988 26.3806C29.7967 26.5289 29.9971 26.603 30.0716 26.7284C30.1461 26.8539 30.1461 27.4469 29.8998 28.1426C29.6477 28.8382 28.4563 29.4711 27.8835 29.5567C27.368 29.6308 26.7208 29.665 26.0048 29.4369C25.5695 29.3001 25.0138 29.1176 24.3036 28.8097C21.3079 27.521 19.3547 24.5217 19.2057 24.3222C19.0568 24.1226 17.9857 22.7142 17.9857 21.2488C17.9857 19.7833 18.7532 19.0649 19.0282 18.7684C19.3031 18.4718 19.6239 18.3977 19.8243 18.3977C20.0248 18.3977 20.2253 18.3977 20.3971 18.4091C20.5804 18.4148 20.8267 18.335 21.0673 18.9166C21.3193 19.5096 21.915 20.9751 21.9895 21.1233C22.064 21.2716 22.1098 21.4426 22.0124 21.6422C21.915 21.8418 21.8635 21.9672 21.7146 22.1383C21.5656 22.3093 21.3995 22.526 21.2678 22.6572C21.1189 22.8054 20.9642 22.9651 21.136 23.2616C21.3136 23.5581 21.9093 24.5331 22.7971 25.32C23.937 26.335 24.8993 26.6486 25.1971 26.7969C25.495 26.9451 25.6726 26.9223 25.8444 26.7227C26.0162 26.5289 26.589 25.856 26.7895 25.5595C26.9842 25.263 27.1847 25.3143 27.4597 25.4113Z" fill="white"/>
</svg>
